<svg width="77" height="64" viewBox="0 0 77 64" fill="none" xmlns="http://www.w3.org/2000/svg">
<path d="M38.1316 0C32.3554 0 18.1293 14.2128 18.1293 19.9841C18.1293 25.7553 32.3554 39.9684 38.1316 39.9684C43.9078 39.9684 58.1341 25.7551 58.1341 19.9841C58.1341 14.213 43.9081 0 38.1316 0ZM35.0146 31.4116C32.5788 30.7485 26.03 19.3034 26.6939 16.8698C27.3577 14.4362 38.813 7.89347 41.2488 8.55672C43.6847 9.21987 50.2335 20.6647 49.5696 23.0984C48.9058 25.5321 37.4503 32.0749 35.0146 31.4116Z" fill="#836EF9"/>
<path d="M8.40228 58.2209V58.2175L3.08507 48.4192C2.9804 48.2264 2.69114 48.2726 2.65186 48.4884L0.00381748 63.0405C-0.0221342 63.1831 0.0875268 63.3143 0.232607 63.3143H2.28138C2.3938 63.3143 2.49012 63.234 2.51018 63.1235L4.05229 54.6326L8.19728 62.5276C8.28437 62.6935 8.52204 62.6935 8.60913 62.5276L12.7541 54.6326L14.2962 63.1235C14.3163 63.234 14.4126 63.3143 14.525 63.3143H16.5738C16.7189 63.3143 16.8285 63.1831 16.8026 63.0405L14.1545 48.4884C14.1153 48.2726 13.826 48.2264 13.7213 48.4192L8.40228 58.2209Z" fill="black"/>
<path d="M25.4174 48.6935C21.1996 48.6935 17.8956 51.9681 17.8956 56.1493C17.8956 60.3304 21.1996 63.6069 25.4174 63.6069C29.6242 63.6069 32.92 60.3314 32.92 56.1493C32.92 51.9672 29.6242 48.6935 25.4174 48.6935ZM25.4174 61.1104C22.6669 61.1104 20.512 58.9309 20.512 56.1493C20.512 53.3676 22.6669 51.19 25.4174 51.19C28.1569 51.19 30.3036 53.3685 30.3036 56.1493C30.3036 58.93 28.1569 61.1104 25.4174 61.1104Z" fill="black"/>
<path d="M44.5129 57.8595L35.6932 48.3751C35.5494 48.2204 35.2903 48.3221 35.2903 48.5332V63.0821C35.2903 63.2104 35.3944 63.3144 35.5229 63.3144H37.655C37.7835 63.3144 37.8876 63.2104 37.8876 63.0821V54.4227L46.6878 63.925C46.8314 64.0801 47.091 63.9786 47.091 63.7672V49.2183C47.091 49.09 46.9869 48.986 46.8584 48.986H44.7454C44.617 48.986 44.5129 49.09 44.5129 49.2183L44.5129 57.8595Z" fill="black"/>
<path d="M49.352 63.3145H51.6414C51.7321 63.3145 51.8145 63.2618 51.8525 63.1795L53.5676 59.4686H59.052L60.7284 63.1778C60.766 63.261 60.8489 63.3145 60.9403 63.3145H63.4245C63.5959 63.3145 63.7085 63.1353 63.6338 62.9811L56.5976 48.4331C56.513 48.2581 56.2635 48.2581 56.1789 48.4331L49.1426 62.9811C49.068 63.1353 49.1805 63.3145 49.352 63.3145ZM54.6427 57.1662L56.3472 53.4706L58.0197 57.1662H54.6427Z" fill="black"/>
<path d="M69.1913 48.9859H65.673C65.5445 48.9859 65.4404 49.0899 65.4404 49.2183V63.0821C65.4404 63.2104 65.5445 63.3144 65.673 63.3144H69.1913C73.5531 63.3144 76.2635 60.5691 76.2635 56.1492C76.2635 51.7293 73.5531 48.9859 69.1913 48.9859ZM69.1913 60.8561H68.0568V51.425H69.1913C72.0229 51.425 73.6471 53.1471 73.6471 56.1492C73.6471 59.1405 72.0229 60.8561 69.1913 60.8561Z" fill="black"/>
</svg>
