<svg width="78" height="64" viewBox="0 0 78 64" fill="none" xmlns="http://www.w3.org/2000/svg">
<path d="M38.948 0C33.1718 0 18.9457 14.2128 18.9457 19.9841C18.9457 25.7553 33.1718 39.9684 38.948 39.9684C44.7242 39.9684 58.9505 25.7551 58.9505 19.9841C58.9505 14.213 44.7245 0 38.948 0ZM35.831 31.4116C33.3952 30.7485 26.8464 19.3034 27.5103 16.8698C28.1741 14.4362 39.6294 7.89347 42.0652 8.55672C44.5011 9.21987 51.0499 20.6647 50.386 23.0984C49.7222 25.5321 38.2668 32.0749 35.831 31.4116Z" fill="#836EF9"/>
<path d="M9.21869 58.2209V58.2175L3.90148 48.4192C3.79681 48.2264 3.50755 48.2726 3.46827 48.4884L0.820224 63.0405C0.794272 63.1831 0.903933 63.3143 1.04901 63.3143H3.09779C3.21021 63.3143 3.30653 63.234 3.32659 63.1235L4.86869 54.6326L9.01368 62.5276C9.10077 62.6935 9.33844 62.6935 9.42554 62.5276L13.5705 54.6326L15.1126 63.1235C15.1327 63.234 15.229 63.3143 15.3414 63.3143H17.3902C17.5353 63.3143 17.6449 63.1831 17.619 63.0405L14.9709 48.4884C14.9317 48.2726 14.6424 48.2264 14.5377 48.4192L9.21869 58.2209Z" fill="white"/>
<path d="M26.2338 48.6935C22.016 48.6935 18.712 51.9681 18.712 56.1493C18.712 60.3304 22.016 63.6069 26.2338 63.6069C30.4406 63.6069 33.7364 60.3314 33.7364 56.1493C33.7364 51.9672 30.4406 48.6935 26.2338 48.6935ZM26.2338 61.1104C23.4833 61.1104 21.3284 58.9309 21.3284 56.1493C21.3284 53.3676 23.4833 51.19 26.2338 51.19C28.9733 51.19 31.12 53.3685 31.12 56.1493C31.12 58.93 28.9733 61.1104 26.2338 61.1104Z" fill="white"/>
<path d="M45.3293 57.8595L36.5096 48.3751C36.3658 48.2204 36.1067 48.3221 36.1067 48.5332V63.0821C36.1067 63.2104 36.2108 63.3144 36.3393 63.3144H38.4714C38.5999 63.3144 38.704 63.2104 38.704 63.0821V54.4227L47.5042 63.925C47.6478 64.0801 47.9074 63.9786 47.9074 63.7672V49.2183C47.9074 49.09 47.8033 48.986 47.6748 48.986H45.5618C45.4334 48.986 45.3293 49.09 45.3293 49.2183L45.3293 57.8595Z" fill="white"/>
<path d="M50.1684 63.3145H52.4578C52.5485 63.3145 52.6309 63.2618 52.6689 63.1795L54.384 59.4686H59.8684L61.5448 63.1778C61.5824 63.261 61.6654 63.3145 61.7568 63.3145H64.2409C64.4124 63.3145 64.5249 63.1353 64.4502 62.9811L57.414 48.4331C57.3294 48.2581 57.0799 48.2581 56.9953 48.4331L49.959 62.9811C49.8844 63.1353 49.9969 63.3145 50.1684 63.3145ZM55.4591 57.1662L57.1636 53.4706L58.8361 57.1662H55.4591Z" fill="white"/>
<path d="M70.0077 48.9859H66.4894C66.3609 48.9859 66.2568 49.0899 66.2568 49.2183V63.0821C66.2568 63.2104 66.3609 63.3144 66.4894 63.3144H70.0077C74.3695 63.3144 77.0799 60.5691 77.0799 56.1492C77.0799 51.7293 74.3695 48.9859 70.0077 48.9859ZM70.0077 60.8561H68.8732V51.425H70.0077C72.8393 51.425 74.4635 53.1471 74.4635 56.1492C74.4635 59.1405 72.8393 60.8561 70.0077 60.8561Z" fill="white"/>
</svg>
